<svg width="155" height="44" viewBox="0 0 155 44" fill="none" xmlns="http://www.w3.org/2000/svg">
<path d="M52.584 9.2L48.342 19H46.102L41.874 9.2H44.324L47.306 16.2L50.33 9.2H52.584ZM53.385 11.468H55.569V19H53.385V11.468ZM54.477 10.418C54.0756 10.418 53.749 10.3013 53.497 10.068C53.245 9.83467 53.119 9.54533 53.119 9.2C53.119 8.85467 53.245 8.56533 53.497 8.332C53.749 8.09867 54.0756 7.982 54.477 7.982C54.8783 7.982 55.205 8.094 55.457 8.318C55.709 8.542 55.835 8.822 55.835 9.158C55.835 9.522 55.709 9.82533 55.457 10.068C55.205 10.3013 54.8783 10.418 54.477 10.418ZM65.2679 8.612V19H63.1819V18.132C62.6406 18.7853 61.8566 19.112 60.8299 19.112C60.1206 19.112 59.4766 18.9533 58.8979 18.636C58.3286 18.3187 57.8806 17.866 57.5539 17.278C57.2272 16.69 57.0639 16.0087 57.0639 15.234C57.0639 14.4593 57.2272 13.778 57.5539 13.19C57.8806 12.602 58.3286 12.1493 58.8979 11.832C59.4766 11.5147 60.1206 11.356 60.8299 11.356C61.7912 11.356 62.5426 11.6593 63.0839 12.266V8.612H65.2679ZM61.2079 17.32C61.7586 17.32 62.2159 17.1333 62.5799 16.76C62.9439 16.3773 63.1259 15.8687 63.1259 15.234C63.1259 14.5993 62.9439 14.0953 62.5799 13.722C62.2159 13.3393 61.7586 13.148 61.2079 13.148C60.6479 13.148 60.1859 13.3393 59.8219 13.722C59.4579 14.0953 59.2759 14.5993 59.2759 15.234C59.2759 15.8687 59.4579 16.3773 59.8219 16.76C60.1859 17.1333 60.6479 17.32 61.2079 17.32ZM74.6673 15.262C74.6673 15.29 74.6533 15.486 74.6253 15.85H68.9273C69.0299 16.3167 69.2726 16.6853 69.6553 16.956C70.0379 17.2267 70.5139 17.362 71.0833 17.362C71.4753 17.362 71.8206 17.306 72.1193 17.194C72.4273 17.0727 72.7119 16.886 72.9733 16.634L74.1353 17.894C73.4259 18.706 72.3899 19.112 71.0273 19.112C70.1779 19.112 69.4266 18.9487 68.7733 18.622C68.1199 18.286 67.6159 17.824 67.2613 17.236C66.9066 16.648 66.7293 15.9807 66.7293 15.234C66.7293 14.4967 66.9019 13.834 67.2473 13.246C67.6019 12.6487 68.0826 12.1867 68.6893 11.86C69.3053 11.524 69.9913 11.356 70.7473 11.356C71.4846 11.356 72.1519 11.5147 72.7493 11.832C73.3466 12.1493 73.8133 12.6067 74.1493 13.204C74.4946 13.792 74.6673 14.478 74.6673 15.262ZM70.7613 13.008C70.2666 13.008 69.8513 13.148 69.5153 13.428C69.1793 13.708 68.9739 14.0907 68.8993 14.576H72.6093C72.5346 14.1 72.3293 13.722 71.9933 13.442C71.6573 13.1527 71.2466 13.008 70.7613 13.008ZM79.7053 19.112C78.9119 19.112 78.1979 18.9487 77.5633 18.622C76.9379 18.286 76.4479 17.824 76.0933 17.236C75.7386 16.648 75.5613 15.9807 75.5613 15.234C75.5613 14.4873 75.7386 13.82 76.0933 13.232C76.4479 12.644 76.9379 12.1867 77.5633 11.86C78.1979 11.524 78.9119 11.356 79.7053 11.356C80.4986 11.356 81.2079 11.524 81.8333 11.86C82.4586 12.1867 82.9486 12.644 83.3033 13.232C83.6579 13.82 83.8353 14.4873 83.8353 15.234C83.8353 15.9807 83.6579 16.648 83.3033 17.236C82.9486 17.824 82.4586 18.286 81.8333 18.622C81.2079 18.9487 80.4986 19.112 79.7053 19.112ZM79.7053 17.32C80.2653 17.32 80.7226 17.1333 81.0773 16.76C81.4413 16.3773 81.6233 15.8687 81.6233 15.234C81.6233 14.5993 81.4413 14.0953 81.0773 13.722C80.7226 13.3393 80.2653 13.148 79.7053 13.148C79.1453 13.148 78.6833 13.3393 78.3193 13.722C77.9553 14.0953 77.7733 14.5993 77.7733 15.234C77.7733 15.8687 77.9553 16.3773 78.3193 16.76C78.6833 17.1333 79.1453 17.32 79.7053 17.32ZM46.382 36.168C45.6073 36.168 44.856 36.0653 44.128 35.86C43.4093 35.6453 42.8307 35.37 42.392 35.034L43.162 33.326C43.582 33.634 44.0813 33.8813 44.66 34.068C45.2387 34.2547 45.8173 34.348 46.396 34.348C47.04 34.348 47.516 34.2547 47.824 34.068C48.132 33.872 48.286 33.6153 48.286 33.298C48.286 33.0647 48.1927 32.8733 48.006 32.724C47.8287 32.5653 47.5953 32.4393 47.306 32.346C47.026 32.2527 46.6433 32.15 46.158 32.038C45.4113 31.8607 44.8 31.6833 44.324 31.506C43.848 31.3287 43.4373 31.044 43.092 30.652C42.756 30.26 42.588 29.7373 42.588 29.084C42.588 28.5147 42.742 28.0013 43.05 27.544C43.358 27.0773 43.82 26.7087 44.436 26.438C45.0613 26.1673 45.822 26.032 46.718 26.032C47.3433 26.032 47.9547 26.1067 48.552 26.256C49.1493 26.4053 49.672 26.62 50.12 26.9L49.42 28.622C48.5147 28.1087 47.6093 27.852 46.704 27.852C46.0693 27.852 45.598 27.9547 45.29 28.16C44.9913 28.3653 44.842 28.636 44.842 28.972C44.842 29.308 45.0147 29.56 45.36 29.728C45.7147 29.8867 46.2513 30.0453 46.97 30.204C47.7167 30.3813 48.328 30.5587 48.804 30.736C49.28 30.9133 49.686 31.1933 50.022 31.576C50.3673 31.9587 50.54 32.4767 50.54 33.13C50.54 33.69 50.3813 34.2033 50.064 34.67C49.756 35.1273 49.2893 35.4913 48.664 35.762C48.0387 36.0327 47.278 36.168 46.382 36.168ZM59.5237 28.468V36H57.4517V35.104C57.1624 35.4307 56.8171 35.6827 56.4157 35.86C56.0144 36.028 55.5804 36.112 55.1137 36.112C54.1244 36.112 53.3404 35.8273 52.7617 35.258C52.1831 34.6887 51.8937 33.844 51.8937 32.724V28.468H54.0777V32.402C54.0777 33.6153 54.5864 34.222 55.6037 34.222C56.1264 34.222 56.5464 34.054 56.8637 33.718C57.1811 33.3727 57.3397 32.864 57.3397 32.192V28.468H59.5237ZM71.1931 28.356C72.1357 28.356 72.8824 28.636 73.4331 29.196C73.9931 29.7467 74.2731 30.5773 74.2731 31.688V36H72.0891V32.024C72.0891 31.4267 71.9631 30.9833 71.7111 30.694C71.4684 30.3953 71.1184 30.246 70.6611 30.246C70.1477 30.246 69.7417 30.414 69.4431 30.75C69.1444 31.0767 68.9951 31.5667 68.9951 32.22V36H66.8111V32.024C66.8111 30.8387 66.3351 30.246 65.3831 30.246C64.8791 30.246 64.4777 30.414 64.1791 30.75C63.8804 31.0767 63.7311 31.5667 63.7311 32.22V36H61.5471V28.468H63.6331V29.336C63.9131 29.0187 64.2537 28.776 64.6551 28.608C65.0657 28.44 65.5137 28.356 65.9991 28.356C66.5311 28.356 67.0117 28.4633 67.4411 28.678C67.8704 28.8833 68.2157 29.1867 68.4771 29.588C68.7851 29.196 69.1724 28.8927 69.6391 28.678C70.1151 28.4633 70.6331 28.356 71.1931 28.356ZM85.8767 28.356C86.8193 28.356 87.566 28.636 88.1167 29.196C88.6767 29.7467 88.9567 30.5773 88.9567 31.688V36H86.7727V32.024C86.7727 31.4267 86.6467 30.9833 86.3947 30.694C86.152 30.3953 85.802 30.246 85.3447 30.246C84.8313 30.246 84.4253 30.414 84.1267 30.75C83.828 31.0767 83.6787 31.5667 83.6787 32.22V36H81.4947V32.024C81.4947 30.8387 81.0187 30.246 80.0667 30.246C79.5627 30.246 79.1613 30.414 78.8627 30.75C78.564 31.0767 78.4147 31.5667 78.4147 32.22V36H76.2307V28.468H78.3167V29.336C78.5967 29.0187 78.9373 28.776 79.3387 28.608C79.7493 28.44 80.1973 28.356 80.6827 28.356C81.2147 28.356 81.6953 28.4633 82.1247 28.678C82.554 28.8833 82.8993 29.1867 83.1607 29.588C83.4687 29.196 83.856 28.8927 84.3227 28.678C84.7987 28.4633 85.3167 28.356 85.8767 28.356ZM93.9523 28.356C95.1189 28.356 96.0149 28.636 96.6403 29.196C97.2656 29.7467 97.5783 30.582 97.5783 31.702V36H95.5343V35.062C95.1236 35.762 94.3583 36.112 93.2383 36.112C92.6596 36.112 92.1556 36.014 91.7263 35.818C91.3063 35.622 90.9843 35.3513 90.7603 35.006C90.5363 34.6607 90.4243 34.2687 90.4243 33.83C90.4243 33.13 90.6856 32.5793 91.2083 32.178C91.7403 31.7767 92.5569 31.576 93.6583 31.576H95.3943C95.3943 31.1 95.2496 30.736 94.9603 30.484C94.6709 30.2227 94.2369 30.092 93.6583 30.092C93.2569 30.092 92.8603 30.1573 92.4683 30.288C92.0856 30.4093 91.7589 30.5773 91.4883 30.792L90.7043 29.266C91.1149 28.9767 91.6049 28.7527 92.1743 28.594C92.7529 28.4353 93.3456 28.356 93.9523 28.356ZM93.7843 34.642C94.1576 34.642 94.4889 34.558 94.7783 34.39C95.0676 34.2127 95.2729 33.956 95.3943 33.62V32.85H93.8963C93.0003 32.85 92.5523 33.144 92.5523 33.732C92.5523 34.012 92.6596 34.236 92.8743 34.404C93.0983 34.5627 93.4016 34.642 93.7843 34.642ZM101.641 29.462C101.902 29.098 102.252 28.8227 102.691 28.636C103.139 28.4493 103.652 28.356 104.231 28.356V30.372C103.988 30.3533 103.825 30.344 103.741 30.344C103.116 30.344 102.626 30.5213 102.271 30.876C101.916 31.2213 101.739 31.744 101.739 32.444V36H99.5549V28.468H101.641V29.462ZM105.529 28.468H107.713V36H105.529V28.468ZM106.621 27.418C106.22 27.418 105.893 27.3013 105.641 27.068C105.389 26.8347 105.263 26.5453 105.263 26.2C105.263 25.8547 105.389 25.5653 105.641 25.332C105.893 25.0987 106.22 24.982 106.621 24.982C107.023 24.982 107.349 25.094 107.601 25.318C107.853 25.542 107.979 25.822 107.979 26.158C107.979 26.522 107.853 26.8253 107.601 27.068C107.349 27.3013 107.023 27.418 106.621 27.418ZM115.942 34.32V36H109.222V34.684L113.058 30.148H109.32V28.468H115.816V29.784L111.98 34.32H115.942ZM120.38 28.356C121.547 28.356 122.443 28.636 123.068 29.196C123.693 29.7467 124.006 30.582 124.006 31.702V36H121.962V35.062C121.551 35.762 120.786 36.112 119.666 36.112C119.087 36.112 118.583 36.014 118.154 35.818C117.734 35.622 117.412 35.3513 117.188 35.006C116.964 34.6607 116.852 34.2687 116.852 33.83C116.852 33.13 117.113 32.5793 117.636 32.178C118.168 31.7767 118.985 31.576 120.086 31.576H121.822C121.822 31.1 121.677 30.736 121.388 30.484C121.099 30.2227 120.665 30.092 120.086 30.092C119.685 30.092 119.288 30.1573 118.896 30.288C118.513 30.4093 118.187 30.5773 117.916 30.792L117.132 29.266C117.543 28.9767 118.033 28.7527 118.602 28.594C119.181 28.4353 119.773 28.356 120.38 28.356ZM120.212 34.642C120.585 34.642 120.917 34.558 121.206 34.39C121.495 34.2127 121.701 33.956 121.822 33.62V32.85H120.324C119.428 32.85 118.98 33.144 118.98 33.732C118.98 34.012 119.087 34.236 119.302 34.404C119.526 34.5627 119.829 34.642 120.212 34.642ZM130.841 35.636C130.626 35.7947 130.36 35.916 130.043 36C129.735 36.0747 129.408 36.112 129.063 36.112C128.167 36.112 127.471 35.8833 126.977 35.426C126.491 34.9687 126.249 34.2967 126.249 33.41V30.316H125.087V28.636H126.249V26.802H128.433V28.636H130.309V30.316H128.433V33.382C128.433 33.6993 128.512 33.9467 128.671 34.124C128.839 34.292 129.072 34.376 129.371 34.376C129.716 34.376 130.01 34.2827 130.253 34.096L130.841 35.636ZM132.067 28.468H134.251V36H132.067V28.468ZM133.159 27.418C132.757 27.418 132.431 27.3013 132.179 27.068C131.927 26.8347 131.801 26.5453 131.801 26.2C131.801 25.8547 131.927 25.5653 132.179 25.332C132.431 25.0987 132.757 24.982 133.159 24.982C133.56 24.982 133.887 25.094 134.139 25.318C134.391 25.542 134.517 25.822 134.517 26.158C134.517 26.522 134.391 26.8253 134.139 27.068C133.887 27.3013 133.56 27.418 133.159 27.418ZM139.862 36.112C139.068 36.112 138.354 35.9487 137.72 35.622C137.094 35.286 136.604 34.824 136.25 34.236C135.895 33.648 135.718 32.9807 135.718 32.234C135.718 31.4873 135.895 30.82 136.25 30.232C136.604 29.644 137.094 29.1867 137.72 28.86C138.354 28.524 139.068 28.356 139.862 28.356C140.655 28.356 141.364 28.524 141.99 28.86C142.615 29.1867 143.105 29.644 143.46 30.232C143.814 30.82 143.992 31.4873 143.992 32.234C143.992 32.9807 143.814 33.648 143.46 34.236C143.105 34.824 142.615 35.286 141.99 35.622C141.364 35.9487 140.655 36.112 139.862 36.112ZM139.862 34.32C140.422 34.32 140.879 34.1333 141.234 33.76C141.598 33.3773 141.78 32.8687 141.78 32.234C141.78 31.5993 141.598 31.0953 141.234 30.722C140.879 30.3393 140.422 30.148 139.862 30.148C139.302 30.148 138.84 30.3393 138.476 30.722C138.112 31.0953 137.93 31.5993 137.93 32.234C137.93 32.8687 138.112 33.3773 138.476 33.76C138.84 34.1333 139.302 34.32 139.862 34.32ZM150.029 28.356C150.963 28.356 151.714 28.636 152.283 29.196C152.862 29.756 153.151 30.5867 153.151 31.688V36H150.967V32.024C150.967 31.4267 150.837 30.9833 150.575 30.694C150.314 30.3953 149.936 30.246 149.441 30.246C148.891 30.246 148.452 30.4187 148.125 30.764C147.799 31.1 147.635 31.604 147.635 32.276V36H145.451V28.468H147.537V29.35C147.827 29.0327 148.186 28.79 148.615 28.622C149.045 28.4447 149.516 28.356 150.029 28.356Z" fill="#3B82F6"/>
<path d="M15.4935 8.69693C16.3539 8.69869 17.1955 8.44509 17.9118 7.96834C18.6281 7.49159 19.1868 6.81309 19.5172 6.01866C19.8477 5.22423 19.9351 4.34961 19.7683 3.50553C19.6015 2.66145 19.1881 1.88577 18.5803 1.27672C17.9725 0.667761 17.1976 0.252719 16.3539 0.0842376C15.5101 -0.0843315 14.6354 0.00131732 13.8403 0.330181C13.0452 0.659045 12.3655 1.21634 11.8873 1.93163C11.4091 2.64693 11.1538 3.48801 11.1538 4.34846C11.1538 5.50019 11.6108 6.60491 12.4244 7.42021C13.238 8.23541 14.3417 8.69455 15.4935 8.69693Z" fill="#3B82F6"/>
<path d="M8.6793 30.8632C8.67464 29.7215 8.22641 28.6262 7.42934 27.8087C5.87375 26.2436 5.00062 24.1265 5.00062 21.9198C5.00062 19.7131 5.87375 17.596 7.42934 16.0309C8.03584 15.4221 8.44824 14.6472 8.61461 13.8042C8.78106 12.9611 8.69392 12.0877 8.36426 11.2941C8.03469 10.5005 7.47731 9.82242 6.76255 9.34532C6.04787 8.86831 5.20775 8.61365 4.34844 8.61365C3.48914 8.61365 2.64911 8.86831 1.93434 9.34532C1.21966 9.82242 0.662282 10.5005 0.332626 11.2941C0.00305813 12.0877 -0.0840881 12.9611 0.0822804 13.8042C0.248737 14.6472 0.661137 15.4221 1.26755 16.0309C2.04763 16.805 2.6668 17.7258 3.08932 18.7403C3.51185 19.7548 3.72936 20.8429 3.72936 21.9418C3.72936 23.0408 3.51185 24.1289 3.08932 25.1434C2.6668 26.1579 2.04763 27.0787 1.26755 27.8527C0.766944 28.3611 0.399084 28.985 0.196537 29.6692C-0.00601033 30.3533 -0.0371727 31.0768 0.105957 31.7759C0.249087 32.4749 0.56202 33.128 1.0172 33.6775C1.47238 34.2271 2.05572 34.6561 2.71592 34.9269C3.37611 35.1976 4.09273 35.3019 4.80265 35.2302C5.51258 35.1586 6.19399 34.9133 6.78675 34.5161C7.37952 34.1189 7.86542 33.5819 8.20159 32.9526C8.53785 32.3232 8.71399 31.6207 8.71451 30.9072L8.6793 30.8632Z" fill="#3B82F6"/>
<path d="M19.8331 39.611C19.8284 38.4693 19.3802 37.374 18.5831 36.5565C17.0276 34.9914 16.1544 32.8743 16.1544 30.6676C16.1544 28.4609 17.0276 26.3438 18.5831 24.7787C19.1896 24.1699 19.602 23.395 19.7684 22.552C19.9349 21.7089 19.8477 20.8355 19.5181 20.0419C19.1885 19.2483 18.6311 18.5702 17.9164 18.0931C17.2017 17.6161 16.3616 17.3615 15.5023 17.3615C14.6429 17.3615 13.8029 17.6161 13.0881 18.0931C12.3735 18.5702 11.8161 19.2483 11.4864 20.0419C11.1569 20.8355 11.0697 21.7089 11.2361 22.552C11.4025 23.395 11.8149 24.1699 12.4214 24.7787C13.2014 25.5528 13.8206 26.4736 14.2431 27.4881C14.6657 28.5026 14.8832 29.5907 14.8832 30.6896C14.8832 31.7886 14.6657 32.8767 14.2431 33.8912C13.8206 34.9057 13.2014 35.8265 12.4214 36.6005C11.9208 37.1089 11.5529 37.7328 11.3503 38.417C11.1478 39.1011 11.1166 39.8246 11.2598 40.5237C11.4029 41.2227 11.7158 41.8758 12.171 42.4253C12.6262 42.9749 13.2095 43.4039 13.8697 43.6747C14.5299 43.9454 15.2465 44.0497 15.9565 43.978C16.6664 43.9064 17.3478 43.6611 17.9406 43.2639C18.5333 42.8667 19.0192 42.3297 19.3554 41.7004C19.6917 41.071 19.8678 40.3685 19.8683 39.655L19.8331 39.611Z" fill="#3B82F6"/>
<path d="M30.7933 30.9303C30.7887 29.7886 30.3404 28.6933 29.5434 27.8758C27.9878 26.3107 27.1146 24.1936 27.1146 21.9869C27.1146 19.7801 27.9878 17.6631 29.5434 16.0979C30.1499 15.4892 30.5623 14.7143 30.7286 13.8712C30.8951 13.0282 30.8079 12.1547 30.4783 11.3612C30.1487 10.5676 29.5913 9.88949 28.8766 9.41239C28.1619 8.93538 27.3218 8.68073 26.4625 8.68073C25.6032 8.68073 24.7631 8.93538 24.0484 9.41239C23.3337 9.88949 22.7763 10.5676 22.4466 11.3612C22.1171 12.1547 22.0299 13.0282 22.1963 13.8712C22.3628 14.7143 22.7752 15.4892 23.3816 16.0979C24.1616 16.872 24.7808 17.7929 25.2033 18.8074C25.6259 19.8219 25.8434 20.9099 25.8434 22.0089C25.8434 23.1079 25.6259 24.1959 25.2033 25.2104C24.7808 26.2249 24.1616 27.1458 23.3816 27.9198C22.881 28.4282 22.5131 29.0521 22.3106 29.7363C22.108 30.4204 22.0768 31.1439 22.22 31.843C22.3631 32.542 22.676 33.1951 23.1312 33.7446C23.5864 34.2942 24.1697 34.7232 24.8299 34.994C25.4901 35.2647 26.2067 35.369 26.9167 35.2973C27.6266 35.2256 28.308 34.9804 28.9008 34.5831C29.4935 34.186 29.9794 33.649 30.3156 33.0196C30.6519 32.3903 30.828 31.6878 30.8285 30.9743L30.7933 30.9303Z" fill="#3B82F6"/>
</svg>
