<svg width="147" height="34" viewBox="0 0 147 34" fill="none" xmlns="http://www.w3.org/2000/svg">
<path d="M44.5841 4.2L40.3421 14H38.1021L33.8741 4.2H36.3241L39.3061 11.2L42.3301 4.2H44.5841ZM45.385 6.468H47.569V14H45.385V6.468ZM46.477 5.418C46.0757 5.418 45.749 5.30133 45.497 5.068C45.245 4.83467 45.119 4.54533 45.119 4.2C45.119 3.85467 45.245 3.56533 45.497 3.332C45.749 3.09867 46.0757 2.982 46.477 2.982C46.8783 2.982 47.205 3.094 47.457 3.318C47.709 3.542 47.835 3.822 47.835 4.158C47.835 4.522 47.709 4.82533 47.457 5.068C47.205 5.30133 46.8783 5.418 46.477 5.418ZM57.268 3.612V14H55.182V13.132C54.6406 13.7853 53.8566 14.112 52.83 14.112C52.1206 14.112 51.4766 13.9533 50.898 13.636C50.3286 13.3187 49.8806 12.866 49.554 12.278C49.2273 11.69 49.064 11.0087 49.064 10.234C49.064 9.45933 49.2273 8.778 49.554 8.19C49.8806 7.602 50.3286 7.14933 50.898 6.832C51.4766 6.51467 52.1206 6.356 52.83 6.356C53.7913 6.356 54.5426 6.65933 55.084 7.266V3.612H57.268ZM53.208 12.32C53.7586 12.32 54.216 12.1333 54.58 11.76C54.944 11.3773 55.126 10.8687 55.126 10.234C55.126 9.59933 54.944 9.09533 54.58 8.722C54.216 8.33933 53.7586 8.148 53.208 8.148C52.648 8.148 52.186 8.33933 51.822 8.722C51.458 9.09533 51.276 9.59933 51.276 10.234C51.276 10.8687 51.458 11.3773 51.822 11.76C52.186 12.1333 52.648 12.32 53.208 12.32ZM66.6673 10.262C66.6673 10.29 66.6533 10.486 66.6253 10.85H60.9273C61.03 11.3167 61.2726 11.6853 61.6553 11.956C62.038 12.2267 62.514 12.362 63.0833 12.362C63.4753 12.362 63.8206 12.306 64.1193 12.194C64.4273 12.0727 64.712 11.886 64.9733 11.634L66.1353 12.894C65.426 13.706 64.39 14.112 63.0273 14.112C62.178 14.112 61.4266 13.9487 60.7733 13.622C60.12 13.286 59.616 12.824 59.2613 12.236C58.9066 11.648 58.7293 10.9807 58.7293 10.234C58.7293 9.49667 58.902 8.834 59.2473 8.246C59.602 7.64867 60.0826 7.18667 60.6893 6.86C61.3053 6.524 61.9913 6.356 62.7473 6.356C63.4846 6.356 64.152 6.51467 64.7493 6.832C65.3466 7.14933 65.8133 7.60667 66.1493 8.204C66.4946 8.792 66.6673 9.478 66.6673 10.262ZM62.7613 8.008C62.2666 8.008 61.8513 8.148 61.5153 8.428C61.1793 8.708 60.974 9.09067 60.8993 9.576H64.6093C64.5346 9.1 64.3293 8.722 63.9933 8.442C63.6573 8.15267 63.2466 8.008 62.7613 8.008ZM71.7053 14.112C70.912 14.112 70.198 13.9487 69.5633 13.622C68.938 13.286 68.448 12.824 68.0933 12.236C67.7387 11.648 67.5613 10.9807 67.5613 10.234C67.5613 9.48733 67.7387 8.82 68.0933 8.232C68.448 7.644 68.938 7.18667 69.5633 6.86C70.198 6.524 70.912 6.356 71.7053 6.356C72.4987 6.356 73.208 6.524 73.8333 6.86C74.4587 7.18667 74.9487 7.644 75.3033 8.232C75.658 8.82 75.8353 9.48733 75.8353 10.234C75.8353 10.9807 75.658 11.648 75.3033 12.236C74.9487 12.824 74.4587 13.286 73.8333 13.622C73.208 13.9487 72.4987 14.112 71.7053 14.112ZM71.7053 12.32C72.2653 12.32 72.7227 12.1333 73.0773 11.76C73.4413 11.3773 73.6233 10.8687 73.6233 10.234C73.6233 9.59933 73.4413 9.09533 73.0773 8.722C72.7227 8.33933 72.2653 8.148 71.7053 8.148C71.1453 8.148 70.6833 8.33933 70.3193 8.722C69.9553 9.09533 69.7733 9.59933 69.7733 10.234C69.7733 10.8687 69.9553 11.3773 70.3193 11.76C70.6833 12.1333 71.1453 12.32 71.7053 12.32ZM38.3821 31.168C37.6074 31.168 36.8561 31.0653 36.1281 30.86C35.4094 30.6453 34.8307 30.37 34.3921 30.034L35.1621 28.326C35.5821 28.634 36.0814 28.8813 36.6601 29.068C37.2387 29.2547 37.8174 29.348 38.3961 29.348C39.0401 29.348 39.5161 29.2547 39.8241 29.068C40.1321 28.872 40.2861 28.6153 40.2861 28.298C40.2861 28.0647 40.1927 27.8733 40.0061 27.724C39.8287 27.5653 39.5954 27.4393 39.3061 27.346C39.0261 27.2527 38.6434 27.15 38.1581 27.038C37.4114 26.8607 36.8001 26.6833 36.3241 26.506C35.8481 26.3287 35.4374 26.044 35.0921 25.652C34.7561 25.26 34.5881 24.7373 34.5881 24.084C34.5881 23.5147 34.7421 23.0013 35.0501 22.544C35.3581 22.0773 35.8201 21.7087 36.4361 21.438C37.0614 21.1673 37.8221 21.032 38.7181 21.032C39.3434 21.032 39.9547 21.1067 40.5521 21.256C41.1494 21.4053 41.6721 21.62 42.1201 21.9L41.4201 23.622C40.5147 23.1087 39.6094 22.852 38.7041 22.852C38.0694 22.852 37.5981 22.9547 37.2901 23.16C36.9914 23.3653 36.8421 23.636 36.8421 23.972C36.8421 24.308 37.0147 24.56 37.3601 24.728C37.7147 24.8867 38.2514 25.0453 38.9701 25.204C39.7167 25.3813 40.3281 25.5587 40.8041 25.736C41.2801 25.9133 41.6861 26.1933 42.0221 26.576C42.3674 26.9587 42.5401 27.4767 42.5401 28.13C42.5401 28.69 42.3814 29.2033 42.0641 29.67C41.7561 30.1273 41.2894 30.4913 40.6641 30.762C40.0387 31.0327 39.2781 31.168 38.3821 31.168ZM51.5238 23.468V31H49.4518V30.104C49.1625 30.4307 48.8171 30.6827 48.4158 30.86C48.0145 31.028 47.5805 31.112 47.1138 31.112C46.1245 31.112 45.3405 30.8273 44.7618 30.258C44.1831 29.6887 43.8938 28.844 43.8938 27.724V23.468H46.0778V27.402C46.0778 28.6153 46.5865 29.222 47.6038 29.222C48.1265 29.222 48.5465 29.054 48.8638 28.718C49.1811 28.3727 49.3398 27.864 49.3398 27.192V23.468H51.5238ZM63.1931 23.356C64.1358 23.356 64.8825 23.636 65.4331 24.196C65.9931 24.7467 66.2731 25.5773 66.2731 26.688V31H64.0891V27.024C64.0891 26.4267 63.9631 25.9833 63.7111 25.694C63.4685 25.3953 63.1185 25.246 62.6611 25.246C62.1478 25.246 61.7418 25.414 61.4431 25.75C61.1445 26.0767 60.9951 26.5667 60.9951 27.22V31H58.8111V27.024C58.8111 25.8387 58.3351 25.246 57.3831 25.246C56.8791 25.246 56.4778 25.414 56.1791 25.75C55.8805 26.0767 55.7311 26.5667 55.7311 27.22V31H53.5471V23.468H55.6331V24.336C55.9131 24.0187 56.2538 23.776 56.6551 23.608C57.0658 23.44 57.5138 23.356 57.9991 23.356C58.5311 23.356 59.0118 23.4633 59.4411 23.678C59.8705 23.8833 60.2158 24.1867 60.4771 24.588C60.7851 24.196 61.1725 23.8927 61.6391 23.678C62.1151 23.4633 62.6331 23.356 63.1931 23.356ZM77.8767 23.356C78.8194 23.356 79.5661 23.636 80.1167 24.196C80.6767 24.7467 80.9567 25.5773 80.9567 26.688V31H78.7727V27.024C78.7727 26.4267 78.6467 25.9833 78.3947 25.694C78.1521 25.3953 77.8021 25.246 77.3447 25.246C76.8314 25.246 76.4254 25.414 76.1267 25.75C75.8281 26.0767 75.6787 26.5667 75.6787 27.22V31H73.4947V27.024C73.4947 25.8387 73.0187 25.246 72.0667 25.246C71.5627 25.246 71.1614 25.414 70.8627 25.75C70.5641 26.0767 70.4147 26.5667 70.4147 27.22V31H68.2307V23.468H70.3167V24.336C70.5967 24.0187 70.9374 23.776 71.3387 23.608C71.7494 23.44 72.1974 23.356 72.6827 23.356C73.2147 23.356 73.6954 23.4633 74.1247 23.678C74.5541 23.8833 74.8994 24.1867 75.1607 24.588C75.4687 24.196 75.8561 23.8927 76.3227 23.678C76.7987 23.4633 77.3167 23.356 77.8767 23.356ZM85.9523 23.356C87.119 23.356 88.015 23.636 88.6403 24.196C89.2656 24.7467 89.5783 25.582 89.5783 26.702V31H87.5343V30.062C87.1236 30.762 86.3583 31.112 85.2383 31.112C84.6596 31.112 84.1556 31.014 83.7263 30.818C83.3063 30.622 82.9843 30.3513 82.7603 30.006C82.5363 29.6607 82.4243 29.2687 82.4243 28.83C82.4243 28.13 82.6856 27.5793 83.2083 27.178C83.7403 26.7767 84.557 26.576 85.6583 26.576H87.3943C87.3943 26.1 87.2496 25.736 86.9603 25.484C86.671 25.2227 86.237 25.092 85.6583 25.092C85.257 25.092 84.8603 25.1573 84.4683 25.288C84.0856 25.4093 83.759 25.5773 83.4883 25.792L82.7043 24.266C83.115 23.9767 83.605 23.7527 84.1743 23.594C84.753 23.4353 85.3456 23.356 85.9523 23.356ZM85.7843 29.642C86.1576 29.642 86.489 29.558 86.7783 29.39C87.0676 29.2127 87.273 28.956 87.3943 28.62V27.85H85.8963C85.0003 27.85 84.5523 28.144 84.5523 28.732C84.5523 29.012 84.6596 29.236 84.8743 29.404C85.0983 29.5627 85.4016 29.642 85.7843 29.642ZM93.6409 24.462C93.9023 24.098 94.2523 23.8227 94.6909 23.636C95.1389 23.4493 95.6523 23.356 96.2309 23.356V25.372C95.9883 25.3533 95.8249 25.344 95.7409 25.344C95.1156 25.344 94.6256 25.5213 94.2709 25.876C93.9163 26.2213 93.7389 26.744 93.7389 27.444V31H91.5549V23.468H93.6409V24.462ZM97.5295 23.468H99.7135V31H97.5295V23.468ZM98.6215 22.418C98.2202 22.418 97.8935 22.3013 97.6415 22.068C97.3895 21.8347 97.2635 21.5453 97.2635 21.2C97.2635 20.8547 97.3895 20.5653 97.6415 20.332C97.8935 20.0987 98.2202 19.982 98.6215 19.982C99.0229 19.982 99.3495 20.094 99.6015 20.318C99.8535 20.542 99.9795 20.822 99.9795 21.158C99.9795 21.522 99.8535 21.8253 99.6015 22.068C99.3495 22.3013 99.0229 22.418 98.6215 22.418ZM107.942 29.32V31H101.222V29.684L105.058 25.148H101.32V23.468H107.816V24.784L103.98 29.32H107.942ZM112.38 23.356C113.547 23.356 114.443 23.636 115.068 24.196C115.693 24.7467 116.006 25.582 116.006 26.702V31H113.962V30.062C113.551 30.762 112.786 31.112 111.666 31.112C111.087 31.112 110.583 31.014 110.154 30.818C109.734 30.622 109.412 30.3513 109.188 30.006C108.964 29.6607 108.852 29.2687 108.852 28.83C108.852 28.13 109.113 27.5793 109.636 27.178C110.168 26.7767 110.985 26.576 112.086 26.576H113.822C113.822 26.1 113.677 25.736 113.388 25.484C113.099 25.2227 112.665 25.092 112.086 25.092C111.685 25.092 111.288 25.1573 110.896 25.288C110.513 25.4093 110.187 25.5773 109.916 25.792L109.132 24.266C109.543 23.9767 110.033 23.7527 110.602 23.594C111.181 23.4353 111.773 23.356 112.38 23.356ZM112.212 29.642C112.585 29.642 112.917 29.558 113.206 29.39C113.495 29.2127 113.701 28.956 113.822 28.62V27.85H112.324C111.428 27.85 110.98 28.144 110.98 28.732C110.98 29.012 111.087 29.236 111.302 29.404C111.526 29.5627 111.829 29.642 112.212 29.642ZM122.841 30.636C122.626 30.7947 122.36 30.916 122.043 31C121.735 31.0747 121.408 31.112 121.063 31.112C120.167 31.112 119.471 30.8833 118.977 30.426C118.491 29.9687 118.249 29.2967 118.249 28.41V25.316H117.087V23.636H118.249V21.802H120.433V23.636H122.309V25.316H120.433V28.382C120.433 28.6993 120.512 28.9467 120.671 29.124C120.839 29.292 121.072 29.376 121.371 29.376C121.716 29.376 122.01 29.2827 122.253 29.096L122.841 30.636ZM124.067 23.468H126.251V31H124.067V23.468ZM125.159 22.418C124.757 22.418 124.431 22.3013 124.179 22.068C123.927 21.8347 123.801 21.5453 123.801 21.2C123.801 20.8547 123.927 20.5653 124.179 20.332C124.431 20.0987 124.757 19.982 125.159 19.982C125.56 19.982 125.887 20.094 126.139 20.318C126.391 20.542 126.517 20.822 126.517 21.158C126.517 21.522 126.391 21.8253 126.139 22.068C125.887 22.3013 125.56 22.418 125.159 22.418ZM131.862 31.112C131.068 31.112 130.354 30.9487 129.72 30.622C129.094 30.286 128.604 29.824 128.25 29.236C127.895 28.648 127.718 27.9807 127.718 27.234C127.718 26.4873 127.895 25.82 128.25 25.232C128.604 24.644 129.094 24.1867 129.72 23.86C130.354 23.524 131.068 23.356 131.862 23.356C132.655 23.356 133.364 23.524 133.99 23.86C134.615 24.1867 135.105 24.644 135.46 25.232C135.814 25.82 135.992 26.4873 135.992 27.234C135.992 27.9807 135.814 28.648 135.46 29.236C135.105 29.824 134.615 30.286 133.99 30.622C133.364 30.9487 132.655 31.112 131.862 31.112ZM131.862 29.32C132.422 29.32 132.879 29.1333 133.234 28.76C133.598 28.3773 133.78 27.8687 133.78 27.234C133.78 26.5993 133.598 26.0953 133.234 25.722C132.879 25.3393 132.422 25.148 131.862 25.148C131.302 25.148 130.84 25.3393 130.476 25.722C130.112 26.0953 129.93 26.5993 129.93 27.234C129.93 27.8687 130.112 28.3773 130.476 28.76C130.84 29.1333 131.302 29.32 131.862 29.32ZM142.029 23.356C142.963 23.356 143.714 23.636 144.283 24.196C144.862 24.756 145.151 25.5867 145.151 26.688V31H142.967V27.024C142.967 26.4267 142.837 25.9833 142.575 25.694C142.314 25.3953 141.936 25.246 141.441 25.246C140.891 25.246 140.452 25.4187 140.125 25.764C139.799 26.1 139.635 26.604 139.635 27.276V31H137.451V23.468H139.537V24.35C139.827 24.0327 140.186 23.79 140.615 23.622C141.045 23.4447 141.516 23.356 142.029 23.356Z" fill="#3B82F6"/>
<path d="M10.9159 8.12738C11.5221 8.12862 12.115 7.94995 12.6197 7.61406C13.1243 7.27817 13.518 6.80013 13.7508 6.24042C13.9836 5.68071 14.0452 5.0645 13.9276 4.4698C13.8102 3.87511 13.5189 3.32861 13.0906 2.89951C12.6624 2.47047 12.1165 2.17805 11.5221 2.05935C10.9276 1.94058 10.3113 2.00093 9.7511 2.23263C9.19095 2.46433 8.71205 2.85696 8.37517 3.36092C8.03822 3.86488 7.85837 4.45746 7.85837 5.06369C7.85837 5.87513 8.1803 6.65346 8.75354 7.22787C9.32677 7.80222 10.1044 8.12571 10.9159 8.12738Z" fill="#3B82F6"/>
<path d="M6.11496 23.7445C6.11168 22.9401 5.79588 22.1684 5.23431 21.5925C4.13832 20.4898 3.52317 18.9982 3.52317 17.4435C3.52317 15.8887 4.13832 14.3972 5.23431 13.2945C5.66161 12.8656 5.95217 12.3196 6.06938 11.7257C6.18666 11.1317 6.12526 10.5163 5.893 9.95722C5.66081 9.39806 5.26811 8.92034 4.76452 8.5842C4.261 8.24812 3.6691 8.06871 3.06368 8.06871C2.45826 8.06871 1.86642 8.24812 1.36283 8.5842C0.859306 8.92034 0.466608 9.39806 0.23435 9.95722C0.00215459 10.5163 -0.0592439 11.1317 0.0579703 11.7257C0.175246 12.3196 0.465801 12.8656 0.893044 13.2945C1.44265 13.8399 1.87888 14.4886 2.17657 15.2034C2.47426 15.9181 2.6275 16.6848 2.6275 17.459C2.6275 18.2333 2.47426 18.9999 2.17657 19.7146C1.87888 20.4294 1.44265 21.0782 0.893044 21.6235C0.540347 21.9817 0.281173 22.4212 0.138469 22.9033C-0.00423455 23.3853 -0.0261898 23.895 0.0746515 24.3876C0.175493 24.8801 0.395968 25.3402 0.716664 25.7274C1.03736 26.1145 1.44835 26.4168 1.91349 26.6076C2.37862 26.7983 2.88351 26.8718 3.38369 26.8213C3.88386 26.7708 4.36395 26.598 4.78158 26.3181C5.19921 26.0383 5.54155 25.66 5.77839 25.2166C6.0153 24.7731 6.1394 24.2782 6.13977 23.7755L6.11496 23.7445Z" fill="#3B82F6"/>
<path d="M13.9733 29.9077C13.97 29.1034 13.6542 28.3317 13.0927 27.7557C11.9967 26.653 11.3815 25.1614 11.3815 23.6067C11.3815 22.052 11.9967 20.5604 13.0927 19.4577C13.52 19.0288 13.8105 18.4828 13.9277 17.8889C14.045 17.2949 13.9836 16.6795 13.7514 16.1204C13.5192 15.5613 13.1265 15.0836 12.6229 14.7474C12.1194 14.4113 11.5275 14.2319 10.922 14.2319C10.3166 14.2319 9.72478 14.4113 9.2212 14.7474C8.71767 15.0836 8.32498 15.5613 8.09272 16.1204C7.86052 16.6795 7.79912 17.2949 7.91634 17.8889C8.03361 18.4828 8.32417 19.0288 8.75141 19.4577C9.30102 20.0031 9.73725 20.6519 10.0349 21.3666C10.3326 22.0814 10.4859 22.848 10.4859 23.6222C10.4859 24.3965 10.3326 25.1631 10.0349 25.8779C9.73725 26.5926 9.30102 27.2414 8.75141 27.7867C8.39871 28.1449 8.13954 28.5845 7.99684 29.0665C7.85413 29.5485 7.83218 30.0583 7.93302 30.5508C8.03386 31.0433 8.25434 31.5034 8.57503 31.8906C8.89573 32.2778 9.30672 32.58 9.77186 32.7708C10.237 32.9616 10.7419 33.035 11.2421 32.9845C11.7422 32.934 12.2223 32.7613 12.6399 32.4814C13.0576 32.2015 13.3999 31.8232 13.6368 31.3798C13.8737 30.9364 13.9978 30.4415 13.9981 29.9387L13.9733 29.9077Z" fill="#3B82F6"/>
<path d="M21.6953 23.7918C21.692 22.9874 21.3762 22.2157 20.8146 21.6397C19.7186 20.5371 19.1035 19.0455 19.1035 17.4907C19.1035 15.936 19.7186 14.4445 20.8146 13.3417C21.2419 12.9128 21.5325 12.3669 21.6497 11.7729C21.767 11.179 21.7056 10.5636 21.4733 10.0045C21.2411 9.44532 20.8484 8.9676 20.3448 8.63146C19.8413 8.29538 19.2494 8.11597 18.644 8.11597C18.0386 8.11597 17.4467 8.29538 16.9432 8.63146C16.4396 8.9676 16.0469 9.44532 15.8147 10.0045C15.5825 10.5636 15.5211 11.179 15.6383 11.7729C15.7556 12.3669 16.0461 12.9128 16.4734 13.3417C17.023 13.8871 17.4592 14.5359 17.7569 15.2506C18.0546 15.9654 18.2078 16.732 18.2078 17.5062C18.2078 18.2805 18.0546 19.0471 17.7569 19.7619C17.4592 20.4767 17.023 21.1254 16.4734 21.6708C16.1207 22.029 15.8615 22.4685 15.7188 22.9506C15.5761 23.4326 15.5541 23.9423 15.655 24.4348C15.7558 24.9273 15.9763 25.3874 16.297 25.7746C16.6177 26.1618 17.0287 26.4641 17.4938 26.6548C17.9589 26.8456 18.4638 26.919 18.964 26.8686C19.4642 26.8181 19.9443 26.6453 20.3619 26.3654C20.7795 26.0856 21.1219 25.7073 21.3587 25.2638C21.5956 24.8204 21.7197 24.3255 21.7201 23.8228L21.6953 23.7918Z" fill="#3B82F6"/>
</svg>
